# xmcd CD database file generated by Grip 2.95
# 
# Track frame offsets:
#       150
#       14815
#       26882
#       37260
#       48707
#       61312
#       72372
#       82795
#       99710
#       113952
#       124377
#       133967
#       143642
#       161127
#       174957
#       183500
#       194280
#       209860
#       221537
#       232795
#       245550
#       254172
#       261242
#       269935
# 
# Disc length: 3753 seconds
# 
# Revision: 3
# Processed by: cddbd v1.4b41PL1 Copyright (c) Steve Scherf et al.
# Submitted via: Grip 2.95
# 
DISCID=8a0ea718
DTITLE=Willie Nelson - Who'll Buy My Memories? - The IRS Tapes
DYEAR=1900
DGENRE=
TTITLE0=Who'll Buy Memories?
TTITLE1=Jimmy's Road
TTITLE2=It Should Be Easier Now
TTITLE3=Will You Remember
TTITLE4=I Still Can't Believe You're Gone
TTITLE5=Yesterday's Wine
TTITLE6=It's Not Supposed To Be That Way
TTITLE7=Country Willie
TTITLE8=The Sound In Your Mind
TTITLE9=Permanently Lonely
TTITLE10=So Much To Do
TTITLE11=Lonely Little Mansion
TTITLE12=Summer of Roses/December Day
TTITLE13=Pretend I Never Happened
TTITLE14=Slow Down Old World
TTITLE15=Opportunity To Cry
TTITLE16=I'm Falling In Love Again
TTITLE17=If You Could Only See
TTITLE18=I'd Rather You Didn't Love Me
TTITLE19=What Can You Do To Me Now
TTITLE20=Buddy
TTITLE21=Remember the Good Times
TTITLE22=Wake Me When It's Over
TTITLE23=Home Motel
EXTD=
EXTT0=
EXTT1=
EXTT2=
EXTT3=
EXTT4=
EXTT5=
EXTT6=
EXTT7=
EXTT8=
EXTT9=
EXTT10=
EXTT11=
EXTT12=
EXTT13=
EXTT14=
EXTT15=
EXTT16=
EXTT17=
EXTT18=
EXTT19=
EXTT20=
EXTT21=
EXTT22=
EXTT23=
PLAYORDER=
